<?xml version="1.0" encoding="UTF-8"?>
<svg version="1.1" xmlns="http://www.w3.org/2000/svg" width="500" height="500">
<path d="M0 0 C1.3948613 0.00303635 1.3948613 0.00303635 2.81790161 0.00613403 C4.2787468 0.00350555 4.2787468 0.00350555 5.769104 0.00082397 C9.0054398 -0.00359642 12.24172146 -0.00065589 15.47805786 0.00271606 C17.71625784 0.00204308 19.95445774 0.0010731 22.19265747 -0.00018311 C26.89033705 -0.00166033 31.58799766 0.00049528 36.28567505 0.00515747 C42.322164 0.01085477 48.3586085 0.0075759 54.39509583 0.00158501 C59.01887347 -0.00201993 63.6426405 -0.00088233 68.26641846 0.0017128 C70.49287928 0.00238225 72.71934106 0.001553 74.94580078 -0.00076675 C78.05163141 -0.00329218 81.15738896 0.00054576 84.26321411 0.00613403 C85.19312164 0.0041098 86.12302917 0.00208557 87.08111572 0 C93.4262956 0.0212663 93.4262956 0.0212663 94.54055786 1.13552856 C94.64854378 2.678639 94.68739044 4.22664096 94.69877625 5.77348328 C94.70856506 6.77614227 94.71835388 7.77880127 94.72843933 8.81184387 C94.73419479 9.92098648 94.73995026 11.03012909 94.74588013 12.17288208 C94.75577972 13.333703 94.76567932 14.49452393 94.77587891 15.69052124 C94.80760482 19.5484713 94.83229502 23.40643369 94.85696411 27.26443481 C94.87752408 29.93101946 94.89847152 32.59759821 94.91993713 35.26417542 C94.96991419 41.57878386 95.01483435 47.89341786 95.0579595 54.20807642 C95.10728913 61.39541768 95.16222305 68.58271265 95.21763909 75.77000916 C95.33153605 90.55847173 95.43835821 105.34698043 95.54055786 120.13552856 C100.11569983 115.58592081 104.68677473 111.03225534 109.25515747 106.4758606 C110.80697674 104.92904355 112.35969568 103.3831285 113.9133606 101.83816528 C116.15740196 99.60637069 118.3980959 97.37126011 120.63821411 95.13552856 C121.32391983 94.45498413 122.00962555 93.7744397 122.71611023 93.07327271 C127.96254597 87.82743723 132.8868592 82.36081971 137.60061646 76.63174438 C140.96978555 72.80242302 143.39402635 70.67404093 148.57962036 70.22732544 C150.44207993 70.22857541 152.30488057 70.27280935 154.16555786 70.35427856 C155.1530603 70.36559814 156.14056274 70.37691772 157.1579895 70.38858032 C160.287553 70.43308295 163.41239863 70.53339246 166.54055786 70.63552856 C168.67200173 70.67568949 170.803518 70.71218567 172.93508911 70.74490356 C178.13855341 70.83273011 183.33906968 70.96957007 188.54055786 71.13552856 C184.66263342 75.77407413 180.64019455 80.17799834 176.35159302 84.4380188 C175.76550262 85.02425522 175.17941223 85.61049164 174.57556152 86.2144928 C172.66261183 88.12675301 170.74615874 90.03545942 168.82962036 91.94412231 C167.49276191 93.27911316 166.15612594 94.61432684 164.81970215 95.94975281 C161.32029807 99.44535873 157.81790016 102.93794971 154.31484985 106.42990112 C150.73330922 110.00116927 147.1546363 113.57530858 143.57571411 117.14920044 C136.56678396 124.14744097 129.55468462 131.14249671 122.54055786 138.13552856 C124.19498743 142.42903895 127.43364558 145.28735026 130.64260864 148.44876099 C131.26712921 149.07196732 131.89164978 149.69517365 132.53509521 150.33726501 C134.59746057 152.39314634 136.66670313 154.44196398 138.73587036 156.49099731 C140.16841455 157.91727168 141.60044518 159.34406202 143.03198242 160.77134705 C146.79905148 164.52511628 150.57164919 168.27327559 154.34585571 172.01986694 C160.39571563 178.02658862 166.43882999 184.04007885 172.47878647 190.05675697 C174.59485464 192.1625593 176.7142789 194.26494104 178.83404541 196.36701965 C180.12190869 197.64805939 181.4096649 198.92920678 182.69729614 200.21047974 C183.29260132 200.79904755 183.88790649 201.38761536 184.50125122 201.99401855 C185.86675771 203.35566101 187.20677691 204.74279509 188.54055786 206.13552856 C188.54055786 206.46552856 188.54055786 206.79552856 188.54055786 207.13552856 C174.42003551 210.50208772 156.03174309 213.91408317 142.83388519 206.12877655 C133.23791279 199.65281064 125.16031065 191.04983668 117.29055786 182.63552856 C116.74228962 182.04959553 116.19402138 181.46366249 115.62913895 180.85997391 C108.72717278 173.44803056 102.13147932 165.83803643 95.54055786 158.13552856 C95.21055786 174.30552856 94.88055786 190.47552856 94.54055786 207.13552856 C84.31055786 207.13552856 74.08055786 207.13552856 63.54055786 207.13552856 C63.54055786 149.05552856 63.54055786 90.97552856 63.54055786 31.13552856 C50.67055786 31.13552856 37.80055786 31.13552856 24.54055786 31.13552856 C24.54055786 102.08552856 24.54055786 173.03552856 24.54055786 246.13552856 C95.16055786 246.13552856 165.78055786 246.13552856 238.54055786 246.13552856 C238.54055786 175.18552856 238.54055786 104.23552856 238.54055786 31.13552856 C203.89055786 31.13552856 169.24055786 31.13552856 133.54055786 31.13552856 C133.54055786 20.90552856 133.54055786 10.67552856 133.54055786 0.13552856 C178.42055786 0.13552856 223.30055786 0.13552856 269.54055786 0.13552856 C269.54055786 91.54552856 269.54055786 182.95552856 269.54055786 277.13552856 C178.13055786 277.13552856 86.72055786 277.13552856 -7.45944214 277.13552856 C-7.48006714 231.61615356 -7.50069214 186.09677856 -7.52194214 139.19802856 C-7.53104614 124.79799194 -7.54015015 110.39795532 -7.54953003 95.56155396 C-7.55404663 78.04653931 -7.55404663 78.04653931 -7.55488586 69.86036682 C-7.55582168 64.11373998 -7.55950362 58.36712276 -7.5650177 52.62049866 C-7.57135969 46.00133538 -7.57428359 39.3821814 -7.57288709 32.76301506 C-7.57228173 29.37325552 -7.57382495 25.98353355 -7.57865727 22.59377491 C-7.58358087 18.97376938 -7.58245069 15.353817 -7.57969666 11.73381042 C-7.58260932 10.66312537 -7.58552198 9.59244032 -7.58852291 8.48931026 C-7.58653204 7.5255982 -7.58454117 6.56188614 -7.58248997 5.56897068 C-7.58286969 4.73092791 -7.58324941 3.89288514 -7.58364064 3.02944714 C-7.29588988 -1.35850043 -3.54909551 0.01189503 0 0 Z " fill="#5C17E9" transform="translate(118.45944213867188,110.86447143554688)"/>
<path d="M0 0 C1.3948613 0.00303635 1.3948613 0.00303635 2.81790161 0.00613403 C4.2787468 0.00350555 4.2787468 0.00350555 5.769104 0.00082397 C9.0054398 -0.00359642 12.24172146 -0.00065589 15.47805786 0.00271606 C17.71625784 0.00204308 19.95445774 0.0010731 22.19265747 -0.00018311 C26.89033705 -0.00166033 31.58799766 0.00049528 36.28567505 0.00515747 C42.322164 0.01085477 48.3586085 0.0075759 54.39509583 0.00158501 C59.01887347 -0.00201993 63.6426405 -0.00088233 68.26641846 0.0017128 C70.49287928 0.00238225 72.71934106 0.001553 74.94580078 -0.00076675 C78.05163141 -0.00329218 81.15738896 0.00054576 84.26321411 0.00613403 C85.19312164 0.0041098 86.12302917 0.00208557 87.08111572 0 C93.4262956 0.0212663 93.4262956 0.0212663 94.54055786 1.13552856 C94.63640785 2.67905987 94.66243856 4.22697965 94.66081238 5.77348328 C94.66287437 7.27747177 94.66287437 7.27747177 94.66497803 8.81184387 C94.65958511 10.47555779 94.65958511 10.47555779 94.65408325 12.17288208 C94.65422928 13.333703 94.65437531 14.49452393 94.65452576 15.69052124 C94.65382603 19.54851108 94.64603084 23.40645335 94.63821411 27.26443481 C94.63635014 29.93101585 94.63487698 32.5975942 94.63392639 35.26417542 C94.63081334 41.57881736 94.6226003 47.89344207 94.6125769 54.20807642 C94.60141496 61.3953849 94.59590511 68.58269418 94.59088147 75.77000916 C94.58041767 90.55852446 94.56281873 105.34702621 94.54055786 120.13552856 C94.21055786 120.13552856 93.88055786 120.13552856 93.54055786 120.13552856 C93.54055786 81.19552856 93.54055786 42.25552856 93.54055786 2.13552856 C60.87055786 2.13552856 28.20055786 2.13552856 -5.45944214 2.13552856 C-5.78944214 92.55552856 -6.11944214 182.97552856 -6.45944214 276.13552856 C84.29055786 276.13552856 175.04055786 276.13552856 268.54055786 276.13552856 C268.54055786 185.38552856 268.54055786 94.63552856 268.54055786 1.13552856 C223.99055786 1.13552856 179.44055786 1.13552856 133.54055786 1.13552856 C133.54055786 0.80552856 133.54055786 0.47552856 133.54055786 0.13552856 C178.42055786 0.13552856 223.30055786 0.13552856 269.54055786 0.13552856 C269.54055786 91.54552856 269.54055786 182.95552856 269.54055786 277.13552856 C178.13055786 277.13552856 86.72055786 277.13552856 -7.45944214 277.13552856 C-7.48006714 231.61615356 -7.50069214 186.09677856 -7.52194214 139.19802856 C-7.53104614 124.79799194 -7.54015015 110.39795532 -7.54953003 95.56155396 C-7.55404663 78.04653931 -7.55404663 78.04653931 -7.55488586 69.86036682 C-7.55582168 64.11373998 -7.55950362 58.36712276 -7.5650177 52.62049866 C-7.57135969 46.00133538 -7.57428359 39.3821814 -7.57288709 32.76301506 C-7.57228173 29.37325552 -7.57382495 25.98353355 -7.57865727 22.59377491 C-7.58358087 18.97376938 -7.58245069 15.353817 -7.57969666 11.73381042 C-7.58260932 10.66312537 -7.58552198 9.59244032 -7.58852291 8.48931026 C-7.58653204 7.5255982 -7.58454117 6.56188614 -7.58248997 5.56897068 C-7.58286969 4.73092791 -7.58324941 3.89288514 -7.58364064 3.02944714 C-7.29588988 -1.35850043 -3.54909551 0.01189503 0 0 Z " fill="#5D35C0" transform="translate(118.45944213867188,110.86447143554688)"/>
<path d="M0 0 C1.6874269 0.00015917 3.37485866 0.00585622 5.06225586 0.01586914 C6.39189613 0.01799156 6.39189613 0.01799156 7.74839783 0.02015686 C10.59133215 0.02577324 13.43418892 0.03832848 16.27709961 0.05102539 C18.19962452 0.05603828 20.12215065 0.06060155 22.04467773 0.06469727 C26.7680151 0.07574798 31.49129419 0.09302356 36.21459961 0.11352539 C36.21459961 0.44352539 36.21459961 0.77352539 36.21459961 1.11352539 C23.34459961 1.11352539 10.47459961 1.11352539 -2.78540039 1.11352539 C-2.78540039 72.06352539 -2.78540039 143.01352539 -2.78540039 216.11352539 C67.50459961 216.11352539 137.79459961 216.11352539 210.21459961 216.11352539 C210.21459961 216.77352539 210.21459961 217.43352539 210.21459961 218.11352539 C182.32976567 218.26726274 154.44490657 218.41530032 126.56000614 218.55648899 C113.61355573 218.62217428 100.66712025 218.6897487 87.72070312 218.76171875 C76.44106638 218.82441831 65.16141774 218.88362609 53.88174051 218.93858093 C47.90522842 218.96782217 41.92873733 218.99885248 35.95225716 219.03405952 C30.33405894 219.06710091 24.71585694 219.09549525 19.0976162 219.12023163 C17.02911598 219.1301753 14.96062333 219.14185782 12.89214325 219.15535545 C10.08113509 219.17344559 7.2701673 219.18543892 4.4591217 219.19581604 C3.62937161 219.20261983 2.79962152 219.20942362 1.94472748 219.21643358 C0.03438067 219.22024782 -1.87596721 219.17272352 -3.78540039 219.11352539 C-5.61232187 217.28660391 -4.91076963 214.74133853 -4.9191438 212.30954027 C-4.91691307 211.46879945 -4.91468235 210.62805863 -4.91238403 209.76184082 C-4.91394402 208.8755611 -4.91550401 207.98928138 -4.91711128 207.0761447 C-4.92112524 204.08272903 -4.91793011 201.08936338 -4.91479492 198.09594727 C-4.91614879 195.95951813 -4.91792864 193.82308922 -4.92010498 191.68666077 C-4.92468107 185.86658473 -4.92288903 180.04652633 -4.91972589 174.22644997 C-4.9172032 168.15035579 -4.91953958 162.07426318 -4.92111206 155.99816895 C-4.92293402 145.79231494 -4.92052675 135.58646815 -4.91577148 125.38061523 C-4.91032882 113.56259377 -4.91209145 101.74458955 -4.91759789 89.92656851 C-4.92212827 79.80007577 -4.92277994 69.67358824 -4.92015922 59.54709482 C-4.91859603 53.49012882 -4.91840382 47.43317093 -4.92169571 41.37620544 C-4.92457333 35.68327968 -4.92260074 29.99037626 -4.91680145 24.29745293 C-4.91547327 22.201548 -4.91586895 20.10564121 -4.91806412 18.00973701 C-4.92077334 15.16153548 -4.9173973 12.31340678 -4.91238403 9.46520996 C-4.91461475 8.62446914 -4.91684548 7.78372832 -4.9191438 6.91751051 C-4.8958282 0.14682748 -4.8958282 0.14682748 0 0 Z " fill="#4C22B8" transform="translate(145.785400390625,140.886474609375)"/>
<path d="M0 0 C1.3948613 0.00303635 1.3948613 0.00303635 2.81790161 0.00613403 C4.2787468 0.00350555 4.2787468 0.00350555 5.769104 0.00082397 C9.0054398 -0.00359642 12.24172146 -0.00065589 15.47805786 0.00271606 C17.71625784 0.00204308 19.95445774 0.0010731 22.19265747 -0.00018311 C26.89033705 -0.00166033 31.58799766 0.00049528 36.28567505 0.00515747 C42.322164 0.01085477 48.3586085 0.0075759 54.39509583 0.00158501 C59.01887347 -0.00201993 63.6426405 -0.00088233 68.26641846 0.0017128 C70.49287928 0.00238225 72.71934106 0.001553 74.94580078 -0.00076675 C78.05163141 -0.00329218 81.15738896 0.00054576 84.26321411 0.00613403 C85.19312164 0.0041098 86.12302917 0.00208557 87.08111572 0 C93.4262956 0.0212663 93.4262956 0.0212663 94.54055786 1.13552856 C94.63640785 2.67905987 94.66243856 4.22697965 94.66081238 5.77348328 C94.66287437 7.27747177 94.66287437 7.27747177 94.66497803 8.81184387 C94.65958511 10.47555779 94.65958511 10.47555779 94.65408325 12.17288208 C94.65422928 13.333703 94.65437531 14.49452393 94.65452576 15.69052124 C94.65382603 19.54851108 94.64603084 23.40645335 94.63821411 27.26443481 C94.63635014 29.93101585 94.63487698 32.5975942 94.63392639 35.26417542 C94.63081334 41.57881736 94.6226003 47.89344207 94.6125769 54.20807642 C94.60141496 61.3953849 94.59590511 68.58269418 94.59088147 75.77000916 C94.58041767 90.55852446 94.56281873 105.34702621 94.54055786 120.13552856 C94.21055786 120.13552856 93.88055786 120.13552856 93.54055786 120.13552856 C93.54055786 81.19552856 93.54055786 42.25552856 93.54055786 2.13552856 C60.87055786 2.13552856 28.20055786 2.13552856 -5.45944214 2.13552856 C-5.78944214 92.88552856 -6.11944214 183.63552856 -6.45944214 277.13552856 C-6.78944214 277.13552856 -7.11944214 277.13552856 -7.45944214 277.13552856 C-7.48230738 241.99178293 -7.49993979 206.8480388 -7.51050747 171.70428729 C-7.51175825 167.55970429 -7.51305256 163.41512131 -7.51437378 159.27053833 C-7.51463609 158.44539096 -7.5148984 157.6202436 -7.51516866 156.77009176 C-7.51952558 143.39152182 -7.52741325 130.01295615 -7.53659493 116.63438875 C-7.54593085 102.91716366 -7.55149762 89.19994082 -7.55353063 75.48271269 C-7.55490599 67.01150431 -7.55925726 58.54030801 -7.56735861 50.06910335 C-7.5726253 44.2681234 -7.57424661 38.46714974 -7.57294352 32.66616756 C-7.57230001 29.31421459 -7.57385741 25.96229997 -7.57864761 22.61034775 C-7.58357737 18.98481802 -7.58244309 15.35934122 -7.57969666 11.73381042 C-7.5826095 10.66282154 -7.58552234 9.59183265 -7.58852345 8.48838955 C-7.5865324 7.52498132 -7.58454135 6.5615731 -7.58248997 5.56897068 C-7.58286969 4.73092791 -7.58324941 3.89288514 -7.58364064 3.02944714 C-7.29588988 -1.35850043 -3.54909551 0.01189503 0 0 Z " fill="#5029AA" transform="translate(118.45944213867188,110.86447143554688)"/>
<path d="M0 0 C44.55 0 89.1 0 135 0 C135 90.75 135 181.5 135 275 C123.78 275 112.56 275 101 275 C101 274.67 101 274.34 101 274 C101.89831543 273.98018066 102.79663086 273.96036133 103.72216797 273.93994141 C107.05090078 273.86190739 110.37917256 273.77521886 113.70751953 273.68261719 C115.1488374 273.64430326 116.59025168 273.60945457 118.03173828 273.578125 C120.10223886 273.53252554 122.17207433 273.47452556 124.2421875 273.4140625 C126.11173096 273.36693115 126.11173096 273.36693115 128.01904297 273.31884766 C131.11541776 273.30317691 131.11541776 273.30317691 133 271 C133.30671783 268.9425444 133.30671783 268.9425444 133.26171303 266.53721428 C133.26917852 265.59271538 133.27664401 264.64821647 133.28433573 263.67509639 C133.282401 262.63036604 133.28046626 261.58563568 133.2784729 260.50924683 C133.2871615 258.85284485 133.2871615 258.85284485 133.29602563 257.1629802 C133.31312186 253.43788878 133.3159104 249.71292054 133.31884766 245.98779297 C133.32813921 243.32742598 133.3382188 240.66707292 133.34928894 238.00671387 C133.37159587 232.26636151 133.38658845 226.52602708 133.39665604 220.78564072 C133.41122268 212.48594544 133.43675376 204.18631262 133.46498732 195.88665392 C133.51049204 182.42201105 133.5470916 168.95735921 133.578125 155.49267578 C133.6082955 142.41062848 133.64266168 129.32860326 133.68261719 116.24658203 C133.6850987 115.43239221 133.6875802 114.61820239 133.69013691 113.77934015 C133.70957589 107.41212946 133.72925874 101.04491952 133.74901867 94.67770982 C133.84586222 63.45183333 133.92142858 32.22593813 134 1 C90.11 1 46.22 1 1 1 C1 10.24 1 19.48 1 29 C35.32 29 69.64 29 105 29 C105 29.33 105 29.66 105 30 C70.35 30 35.7 30 0 30 C0 20.1 0 10.2 0 0 Z " fill="#571DD6" transform="translate(252,112)"/>
<path d="M0 0 C0.33 0.66 0.66 1.32 1 2 C71.29 2 141.58 2 214 2 C214 2.66 214 3.32 214 4 C143.38 4.33 72.76 4.66 0 5 C-0.33 4.01 -0.66 3.02 -1 2 C-0.67 1.34 -0.34 0.68 0 0 Z " fill="#5B2EC3" transform="translate(142,355)"/>
<path d="M0 0 C6.30701232 5.16686375 12.03454818 10.88187028 17.78198242 16.65161133 C19.45442194 18.32947684 21.13222544 20.00184826 22.81054688 21.67382812 C23.8727172 22.7366581 24.9345779 23.79979761 25.99609375 24.86328125 C26.49910507 25.36426834 27.00211639 25.86525543 27.52037048 26.38142395 C31 29.88500684 31 29.88500684 31 31 C24.84373291 31.17339987 18.68889488 31.30023607 12.53076172 31.38452148 C10.43741082 31.41966439 8.34423101 31.46739021 6.25146484 31.52807617 C3.23752626 31.61326826 0.2258628 31.6527492 -2.7890625 31.68359375 C-4.18628036 31.73778725 -4.18628036 31.73778725 -5.61172485 31.79307556 C-12.02355328 31.79692587 -12.02355328 31.79692587 -14.9664917 29.39505005 C-16.46263122 27.66077039 -17.77645843 25.9340337 -19 24 C-15.15322876 25.8008728 -15.15322876 25.8008728 -13.77416992 27.59301758 C-10.80840432 29.94497948 -7.24851846 29.48245755 -3.61328125 29.51171875 C-2.79627243 29.52966995 -1.97926361 29.54762115 -1.13749695 29.56611633 C1.47078294 29.62027788 4.07887925 29.65413308 6.6875 29.6875 C8.45640579 29.72066799 10.22528733 29.75515717 11.99414062 29.79101562 C16.32929473 29.87600746 20.66439384 29.94279035 25 30 C25 29.01 25 28.02 25 27 C24.21625 26.855625 23.4325 26.71125 22.625 26.5625 C20 26 20 26 18 25 C17.375 22.4375 17.375 22.4375 17 20 C16.01 20 15.02 20 14 20 C14 19.01 14 18.02 14 17 C12.02 16.67 10.04 16.34 8 16 C7.67 14.68 7.34 13.36 7 12 C7.66 12 8.32 12 9 12 C8.3503125 11.30132812 7.700625 10.60265625 7.03125 9.8828125 C6.1959375 8.97273438 5.360625 8.06265625 4.5 7.125 C3.6646875 6.22007812 2.829375 5.31515625 1.96875 4.3828125 C0 2 0 2 0 0 Z " fill="#5824D1" transform="translate(276,287)"/>
<path d="M0 0 C4.75085867 3.96372525 9.23613112 8.09794782 13.58984375 12.4921875 C14.17923233 13.08299103 14.76862091 13.67379456 15.37586975 14.28250122 C17.23213727 16.14430404 19.08487085 18.00957745 20.9375 19.875 C22.20614672 21.14867011 23.4750249 22.42210971 24.74414062 23.6953125 C27.83210554 26.79422043 30.91690929 29.89624301 34 33 C33.01 33.33 32.02 33.66 31 34 C31 33.34 31 32.68 31 32 C30.01 32 29.02 32 28 32 C26.38671875 30.49609375 26.38671875 30.49609375 24.6875 28.4375 C24.07777344 27.71304687 23.46804688 26.98859375 22.83984375 26.2421875 C21.66488733 24.81028732 20.49036416 23.37803144 19.31640625 21.9453125 C18.79949219 21.32398438 18.28257812 20.70265625 17.75 20.0625 C17.29109375 19.49660156 16.8321875 18.93070312 16.359375 18.34765625 C14.92837032 16.72982485 14.92837032 16.72982485 12 16 C11 15 10 14 9 13 C8.34 13 7.68 13 7 13 C5.78125 11.28515625 5.78125 11.28515625 4.5 9.0625 C2.81545121 5.94567974 2.81545121 5.94567974 0 4 C0 2.68 0 1.36 0 0 Z " fill="#571EDB" transform="translate(242,253)"/>
<path d="M0 0 C0.99 0 1.98 0 3 0 C3.04964329 5.42601201 3.08583447 10.85189015 3.10986328 16.27807617 C3.11988642 18.12184962 3.13350852 19.96560731 3.15087891 21.80932617 C3.17528995 24.4679759 3.18652017 27.12641443 3.1953125 29.78515625 C3.20563507 30.60210464 3.21595764 31.41905304 3.22659302 32.26075745 C3.22755457 37.22748454 2.59145963 41.2889491 1 46 C0.67 46 0.34 46 0 46 C0 30.82 0 15.64 0 0 Z " fill="#5E29DE" transform="translate(357,142)"/>
<path d="M0 0 C0.79275833 0.00888245 1.58551666 0.01776489 2.40229797 0.0269165 C3.30300522 0.02721863 4.20371246 0.02752075 5.13171387 0.02783203 C6.10055008 0.04847717 7.06938629 0.06912231 8.06758118 0.09039307 C9.55944695 0.09888275 9.55944695 0.09888275 11.08145142 0.10754395 C14.26090954 0.12995087 17.43924442 0.18015602 20.61836243 0.23101807 C22.77264304 0.25107745 24.9269413 0.26932919 27.08125305 0.28570557 C32.36484 0.32982955 37.64777098 0.39678428 42.93086243 0.48101807 C41.98294795 1.60951458 41.03180109 2.73529648 40.07929993 3.85992432 C39.28531799 4.80073853 39.28531799 4.80073853 38.47529602 5.76055908 C36.79580867 7.63146445 35.03493967 9.10527525 32.93086243 10.48101807 C33.20929993 9.33633057 33.20929993 9.33633057 33.49336243 8.16851807 C34.15905416 5.39134431 34.15905416 5.39134431 32.93086243 2.48101807 C28.16199756 2.43151691 23.39328284 2.39525069 18.6242218 2.37115479 C17.0024505 2.36110784 15.38069727 2.34746791 13.75898743 2.33013916 C11.42560869 2.30583313 9.09246983 2.29452193 6.75898743 2.28570557 C6.03592407 2.275383 5.31286072 2.26506042 4.56788635 2.25442505 C0.85288204 2.25360025 -1.91494802 2.41866336 -5.06913757 4.48101807 C-2.68097988 0.62325472 -2.68097988 0.62325472 0 0 Z " fill="#5321CC" transform="translate(264.0691375732422,181.51898193359375)"/>
<path d="M0 0 C1.32 0.33 2.64 0.66 4 1 C-0.95 5.95 -5.9 10.9 -11 16 C-11 15.01 -11 14.02 -11 13 C-10.505 12.5875 -10.01 12.175 -9.5 11.75 C-7.17257175 9.03466704 -7.80550164 6.43613762 -8 3 C-5.69 3 -3.38 3 -1 3 C-0.67 2.01 -0.34 1.02 0 0 Z " fill="#5320C8" transform="translate(272,213)"/>
<path d="M0 0 C1.32 0.33 2.64 0.66 4 1 C-2.6 7.6 -9.2 14.2 -16 21 C-16 17.38462395 -15.10770759 15.88834003 -13 13 C-12.01 13 -11.02 13 -10 13 C-9.9175 12.38125 -9.835 11.7625 -9.75 11.125 C-9 9 -9 9 -7 7.9375 C-6.34 7.628125 -5.68 7.31875 -5 7 C-4.67 6.01 -4.34 5.02 -4 4 C-1.9375 2.8125 -1.9375 2.8125 0 2 C0 1.34 0 0.68 0 0 Z " fill="#5122C0" transform="translate(293,192)"/>
<path d="M0 0 C1.32 0.33 2.64 0.66 4 1 C-0.95 5.95 -5.9 10.9 -11 16 C-12.24546405 13.50907189 -11.7767578 12.58919267 -11 10 C-10.01 10 -9.02 10 -8 10 C-8 9.34 -8 8.68 -8 8 C-7.01 8 -6.02 8 -5 8 C-5.33 7.01 -5.66 6.02 -6 5 C-5.195625 4.731875 -4.39125 4.46375 -3.5625 4.1875 C-2.716875 3.795625 -1.87125 3.40375 -1 3 C-0.67 2.01 -0.34 1.02 0 0 Z " fill="#5120C5" transform="translate(256,229)"/>
<path d="M0 0 C0 4.07153586 -1.54845234 6.78963997 -4 10 C-6.125 10.6875 -6.125 10.6875 -8 11 C-8.33 11.66 -8.66 12.32 -9 13 C-9.33 13.66 -9.66 14.32 -10 15 C-12.0625 15.625 -12.0625 15.625 -14 16 C-9.84542161 10.08287321 -5.22741666 4.98860067 0 0 Z " fill="#5925D2" transform="translate(257,187)"/>
<path d="M0 0 C4.52615993 3.67832017 8.39424999 7.41086363 12 12 C8.23348872 11.45123677 6.73347739 9.99236151 4.3125 7.125 C3.40951172 6.07699219 3.40951172 6.07699219 2.48828125 5.0078125 C1 3 1 3 0 0 Z " fill="#5823D6" transform="translate(276,287)"/>
<path d="M0 0 C0.33 0.66 0.66 1.32 1 2 C-0.125 4.5625 -0.125 4.5625 -2 7 C-4.6875 7.8125 -4.6875 7.8125 -7 8 C-6.02133662 6.85373678 -5.04205413 5.70800212 -4.0625 4.5625 C-3.51722656 3.92441406 -2.97195312 3.28632813 -2.41015625 2.62890625 C-1.63204305 1.73008851 -0.84063472 0.84063472 0 0 Z " fill="#581FDF" transform="translate(222,223)"/>
<path d="M0 0 C0.66 0.33 1.32 0.66 2 1 C1.3125 3.4375 1.3125 3.4375 0 6 C-2.625 6.8125 -2.625 6.8125 -5 7 C-5 5.68 -5 4.36 -5 3 C-2.625 1.1875 -2.625 1.1875 0 0 Z " fill="#581BE3" transform="translate(263,183)"/>
<path d="M0 0 C1.14926266 0.95421808 2.29430541 1.91352045 3.4375 2.875 C4.07558594 3.40867187 4.71367187 3.94234375 5.37109375 4.4921875 C7 6 7 6 8 8 C5 8 5 8 3.4375 6.5625 C2.963125 6.046875 2.48875 5.53125 2 5 C1.34 4.67 0.68 4.34 0 4 C0 2.68 0 1.36 0 0 Z " fill="#5822D8" transform="translate(242,253)"/>
<path d="M0 0 C0.33 0.99 0.66 1.98 1 3 C0.34 3 -0.32 3 -1 3 C-1.2475 3.639375 -1.495 4.27875 -1.75 4.9375 C-3 7 -3 7 -5.078125 7.62890625 C-5.71234375 7.75136719 -6.3465625 7.87382812 -7 8 C-6.02133662 6.85373678 -5.04205413 5.70800212 -4.0625 4.5625 C-3.51722656 3.92441406 -2.97195312 3.28632813 -2.41015625 2.62890625 C-1.63204305 1.73008851 -0.84063472 0.84063472 0 0 Z " fill="#5921D8" transform="translate(242,203)"/>
<path d="M0 0 C1.98 0.495 1.98 0.495 4 1 C3.484375 1.4125 2.96875 1.825 2.4375 2.25 C1.963125 2.8275 1.48875 3.405 1 4 C1.22757731 6.16299211 1.22757731 6.16299211 2 8 C1.01 8 0.02 8 -1 8 C-1.125 2.25 -1.125 2.25 0 0 Z " fill="#5721CA" transform="translate(240,245)"/>
<path d="M0 0 C2.31 1.98 4.62 3.96 7 6 C6.01 6.33 5.02 6.66 4 7 C1 5 1 5 0.3125 2.375 C0.209375 1.59125 0.10625 0.8075 0 0 Z " fill="#5821DA" transform="translate(290,301)"/>
<path d="M0 0 C1.32 0.33 2.64 0.66 4 1 C3.39816251 3.02045442 2.72693904 5.02111039 2 7 C1.01 7.495 1.01 7.495 0 8 C0.185625 7.236875 0.37125 6.47375 0.5625 5.6875 C1.22819173 2.91032625 1.22819173 2.91032625 0 0 Z " fill="#551CD4" transform="translate(297,184)"/>
</svg>
